<svg width="26" height="26" viewBox="0 0 26 26" fill="none" xmlns="http://www.w3.org/2000/svg">
<path fill-rule="evenodd" clip-rule="evenodd" d="M7.4375 3.98438C6.704 3.98438 6.10938 4.579 6.10938 5.3125V20.8529L11.17 17.5996C12.1325 16.9809 13.3675 16.9809 14.33 17.5996L19.3906 20.8529V5.3125C19.3906 4.579 18.796 3.98438 18.0625 3.98438H7.4375ZM4.51562 5.3125C4.51562 3.69879 5.82379 2.39062 7.4375 2.39062H18.0625C19.6762 2.39062 20.9844 3.69879 20.9844 5.3125V22.3125C20.9844 22.604 20.8252 22.8722 20.5694 23.0119C20.3135 23.1516 20.0018 23.1404 19.7566 22.9828L13.4682 18.9403C13.0307 18.659 12.4693 18.659 12.0318 18.9403L5.74342 22.9828C5.49821 23.1404 5.1865 23.1516 4.93065 23.0119C4.67479 22.8722 4.51562 22.604 4.51562 22.3125V5.3125Z" fill="black"/>
</svg>
