<svg width="400" height="400" viewBox="0 0 400 400" fill="none" xmlns="http://www.w3.org/2000/svg">
<path d="M33.9746 262.324C44.2165 266.706 55.9778 270.276 68.3496 273.205C88.7217 278.028 113.147 281.662 140.008 283.833C140.003 284.065 140 284.295 140 284.524C140 296.337 146.328 311.207 162.139 317.562C179.945 324.718 204.928 336.587 217.905 348.759C211.695 348.917 205.388 349.001 199 349.001C102.351 349.001 24.0011 330.452 24 307.572V274.716H24.1055C24.7256 270.384 28.1541 266.22 33.9746 262.324ZM253.48 345.066V345.065V345.066ZM251.275 341.886V341.885V341.886ZM246.711 335.859V335.858V335.859ZM321.448 336.975C321.501 336.908 321.553 336.84 321.605 336.773C321.553 336.84 321.501 336.908 321.448 336.975ZM322.993 335.057C322.609 335.523 322.226 335.995 321.846 336.473C322.226 335.995 322.609 335.523 322.993 335.057ZM324.741 332.992C325.518 332.1 326.303 331.232 327.094 330.393L327.904 329.546C326.838 330.645 325.783 331.796 324.741 332.992ZM238.656 327.094C238.085 326.555 237.501 326.02 236.904 325.488C237.501 326.02 238.085 326.555 238.656 327.094ZM330.363 327.121C330.491 327.001 330.621 326.882 330.75 326.762C330.621 326.882 330.491 327.001 330.363 327.121ZM332.938 324.788C333.105 324.643 333.273 324.498 333.441 324.354C333.273 324.498 333.105 324.643 332.938 324.788ZM333.894 323.967C334.079 323.809 334.266 323.652 334.454 323.495C334.266 323.652 334.079 323.809 333.894 323.967ZM334.746 323.251C334.99 323.048 335.235 322.846 335.482 322.645C335.235 322.846 334.99 323.048 334.746 323.251ZM233.189 322.338H233.19H233.189ZM335.658 322.501C335.879 322.322 336.102 322.143 336.325 321.965C336.102 322.143 335.879 322.322 335.658 322.501ZM336.672 321.688C336.856 321.542 337.041 321.396 337.227 321.251C337.041 321.396 336.856 321.542 336.672 321.688ZM337.601 320.958C337.837 320.775 338.074 320.592 338.312 320.41C338.074 320.592 337.837 320.775 337.601 320.958ZM338.56 320.221C338.759 320.069 338.96 319.919 339.161 319.768C338.96 319.919 338.759 320.069 338.56 320.221ZM339.65 319.4C339.824 319.272 339.998 319.143 340.172 319.015C339.998 319.143 339.824 319.272 339.65 319.4ZM340.59 318.708C340.791 318.561 340.994 318.415 341.196 318.269C340.994 318.415 340.791 318.561 340.59 318.708ZM341.612 317.968C341.832 317.811 342.052 317.654 342.272 317.498C342.052 317.654 341.832 317.811 341.612 317.968ZM342.618 317.255C342.832 317.104 343.047 316.954 343.262 316.805C343.047 316.954 342.832 317.104 342.618 317.255ZM343.673 316.52C343.876 316.379 344.079 316.239 344.283 316.1C344.079 316.239 343.876 316.379 343.673 316.52ZM344.69 315.822C344.948 315.647 345.207 315.473 345.467 315.299C345.207 315.473 344.948 315.647 344.69 315.822ZM345.65 315.176C345.904 315.006 346.158 314.837 346.413 314.669C346.158 314.837 345.904 315.006 345.65 315.176ZM346.871 314.368C347.081 314.23 347.292 314.093 347.503 313.956C347.292 314.093 347.081 314.23 346.871 314.368ZM347.95 313.666C348.131 313.549 348.312 313.433 348.494 313.316C348.312 313.433 348.131 313.549 347.95 313.666ZM349.231 312.849C349.364 312.765 349.495 312.68 349.628 312.597C349.495 312.68 349.364 312.765 349.231 312.849ZM217.37 311.325C218.12 311.784 218.865 312.247 219.605 312.714C219.235 312.48 218.864 312.248 218.491 312.017L217.37 311.325ZM350.12 312.29C350.34 312.153 350.56 312.015 350.78 311.878C350.56 312.015 350.34 312.153 350.12 312.29ZM351.238 311.596C351.426 311.48 351.614 311.364 351.803 311.249C351.614 311.364 351.426 311.48 351.238 311.596ZM352.38 310.898C352.573 310.781 352.766 310.664 352.96 310.548C352.766 310.664 352.573 310.781 352.38 310.898ZM353.488 310.232C353.688 310.113 353.886 309.993 354.086 309.875C353.886 309.993 353.688 310.113 353.488 310.232ZM354.513 309.624C354.734 309.494 354.954 309.363 355.176 309.233C354.954 309.363 354.734 309.494 354.513 309.624ZM358.01 307.606C357.217 308.054 356.426 308.507 355.639 308.965C356.426 308.507 357.217 308.054 358.01 307.606ZM202.465 302.978C204.767 304.166 207.082 305.399 209.386 306.678C207.082 305.399 204.767 304.166 202.465 302.978ZM359.12 306.982C359.511 306.764 359.902 306.548 360.294 306.332C359.902 306.548 359.511 306.764 359.12 306.982ZM361.36 305.747C361.748 305.536 362.135 305.327 362.522 305.118C362.135 305.327 361.748 305.536 361.36 305.747ZM363.681 304.499C364.063 304.296 364.444 304.094 364.826 303.894C364.444 304.094 364.063 304.296 363.681 304.499ZM365.855 303.355C366.275 303.138 366.693 302.921 367.111 302.706C366.693 302.921 366.275 303.138 365.855 303.355ZM368.226 302.138C368.583 301.956 368.94 301.775 369.297 301.596C368.94 301.775 368.583 301.956 368.226 302.138ZM370.371 301.06C370.815 300.839 371.258 300.619 371.7 300.401C371.258 300.619 370.815 300.839 370.371 301.06ZM372.698 299.914C373.018 299.758 373.337 299.602 373.656 299.448C373.337 299.602 373.018 299.758 372.698 299.914ZM172.196 289.1C172.534 289.347 172.911 289.559 173.326 289.726C177.85 291.544 183.211 293.8 188.979 296.436C189.7 296.765 190.427 297.1 191.16 297.441C191.893 297.782 192.632 298.129 193.375 298.481L195.618 299.557C187.349 295.555 179.546 292.226 173.326 289.726C172.911 289.559 172.534 289.347 172.196 289.1ZM171.719 288.701C171.619 288.607 171.524 288.51 171.433 288.409C171.524 288.51 171.619 288.607 171.719 288.701ZM369.08 267.343C368.77 267.187 368.46 267.028 368.149 266.87C368.46 267.028 368.77 267.187 369.08 267.343ZM366.801 266.182C366.438 265.995 366.076 265.806 365.713 265.617C366.076 265.806 366.438 265.995 366.801 266.182ZM364.58 265.025C364.182 264.816 363.786 264.604 363.388 264.392C363.786 264.604 364.182 264.816 364.58 265.025ZM362.26 263.789C362.005 263.652 361.751 263.513 361.496 263.374H361.498C361.752 263.512 362.005 263.652 362.26 263.789ZM33.9756 169.469C44.41 173.933 56.4536 177.566 69.168 180.54C103.598 188.594 149.439 193.288 199 193.288L203.575 193.274C215.137 193.207 226.48 192.881 237.506 192.319C231.843 202.877 225.503 212.731 219.117 219.117C206.54 231.695 180.517 244.101 162.139 251.487C159.779 252.436 157.631 253.575 155.684 254.864C79.9895 250.301 24.0065 234.059 24 214.719V181.86H24.1055C24.7257 177.528 28.1548 173.364 33.9756 169.469ZM329.546 241.145C329.859 241.448 330.177 241.749 330.498 242.051H330.496C330.462 242.018 330.427 241.986 330.393 241.954L329.546 241.145ZM325.488 236.904C326.02 237.501 326.555 238.085 327.094 238.656C326.555 238.085 326.02 237.501 325.488 236.904ZM322.338 233.19V233.189V233.19ZM364.023 169.469C370.483 173.791 373.999 178.442 373.999 183.288H374V216.146H373.895C373.233 220.762 369.379 225.186 362.841 229.3C357.82 225.984 353.372 222.558 349.932 219.117C341.333 210.518 332.815 195.634 325.926 181.205C326.435 181.091 326.943 180.976 327.447 180.86C340.744 177.811 353.266 174.07 364.023 169.469ZM315.567 223.982H315.568H315.567ZM311.325 217.37C311.784 218.12 312.247 218.865 312.714 219.605C312.48 219.235 312.247 218.864 312.016 218.491L311.325 217.37ZM302.977 202.466C304.165 204.768 305.399 207.082 306.678 209.386C305.399 207.082 304.165 204.768 302.977 202.466ZM297.441 191.16C297.783 191.893 298.13 192.632 298.482 193.375L299.557 195.618C298.829 194.114 298.124 192.626 297.441 191.16ZM199 49C295.648 49 373.997 67.5482 373.999 90.4287H374V123.286H373.895C372.171 135.334 348.718 146.073 312.521 153.385C305.079 143.945 293.85 140 284.524 140C272.907 140 258.33 146.121 251.808 161.365C235.145 162.612 217.405 163.288 199 163.288C103.106 163.288 25.2259 145.029 24.0146 122.395L24 121.859V89.001H24.1055C27.2868 66.7818 104.371 49 199 49ZM323.619 334.307C323.727 334.179 323.833 334.05 323.941 333.923C323.833 334.05 323.727 334.179 323.619 334.307ZM323.986 333.869C324.237 333.574 324.489 333.282 324.741 332.992C324.489 333.282 324.237 333.574 323.986 333.869ZM332.04 325.581C332.303 325.345 332.57 325.111 332.838 324.877C332.57 325.111 332.303 325.345 332.04 325.581ZM332.04 325.581C331.85 325.751 331.663 325.921 331.476 326.092C331.663 325.921 331.85 325.751 332.04 325.581Z" fill="#222222"/>
<path d="M279.323 173.326C281.106 168.891 287.943 168.891 289.725 173.326C296.998 191.422 311.292 222.904 328.718 240.33C346.145 257.756 377.627 272.05 395.722 279.323C400.157 281.106 400.157 287.943 395.722 289.725C377.627 296.998 346.145 311.292 328.718 328.718C311.292 346.145 296.998 377.627 289.725 395.722C287.943 400.157 281.106 400.157 279.323 395.722C272.05 377.627 257.756 346.145 240.33 328.718C222.904 311.292 191.422 296.998 173.326 289.725C168.891 287.943 168.891 281.106 173.326 279.323C191.422 272.05 222.904 257.756 240.33 240.33C257.756 222.904 272.05 191.422 279.323 173.326Z" fill="url(#paint0_linear_68_1577)"/>
<defs>
<linearGradient id="paint0_linear_68_1577" x1="170" y1="399" x2="399" y2="170" gradientUnits="userSpaceOnUse">
<stop stop-color="#E3181B"/>
<stop offset="0.5" stop-color="#ED5F7F"/>
<stop offset="1" stop-color="#FFCAD6"/>
</linearGradient>
</defs>
</svg>
