<svg width="400" height="400" viewBox="0 0 400 400" fill="none" xmlns="http://www.w3.org/2000/svg">
<path d="M279.323 173.326C281.106 168.891 287.943 168.891 289.726 173.326C291.771 178.416 294.372 184.564 297.441 191.161C297.782 191.894 298.129 192.632 298.481 193.375C300.247 197.096 302.155 200.935 304.189 204.786C304.531 205.432 304.875 206.078 305.224 206.724C311.094 217.615 317.961 228.467 325.488 236.904C325.754 237.203 326.021 237.498 326.289 237.79C327.092 238.666 327.902 239.513 328.719 240.33C346.145 257.756 377.626 272.05 395.722 279.323C400.157 281.106 400.157 287.943 395.722 289.726C377.626 296.998 346.145 311.293 328.719 328.719C328.446 328.991 328.175 329.267 327.904 329.546C327.398 330.068 326.895 330.602 326.394 331.146C326.31 331.237 326.226 331.328 326.143 331.42C325.984 331.594 325.825 331.768 325.667 331.944C325.58 332.042 325.492 332.139 325.405 332.237C325.183 332.487 324.962 332.739 324.741 332.992C309.128 350.925 296.437 379.023 289.726 395.722C287.943 400.157 281.106 400.157 279.323 395.722C272.05 377.626 257.756 346.145 240.33 328.719C239.513 327.902 238.666 327.092 237.79 326.289C237.498 326.021 237.203 325.754 236.904 325.488C228.627 318.103 218.025 311.354 207.343 305.558C206.625 305.168 205.907 304.785 205.189 304.404C204.958 304.282 204.728 304.159 204.497 304.037C204.053 303.803 203.609 303.572 203.166 303.342C199.928 301.659 196.71 300.068 193.573 298.577C191.866 297.766 190.183 296.985 188.535 296.234C187.963 295.974 187.396 295.717 186.833 295.465C182.961 293.727 179.305 292.171 176.002 290.814C176.288 290.932 176.578 291.05 176.869 291.171C176.555 291.041 176.244 290.913 175.937 290.787C175.826 290.742 175.717 290.696 175.607 290.651C175.424 290.576 175.242 290.501 175.062 290.428L173.326 289.726C173.232 289.688 173.141 289.647 173.052 289.604C173.031 289.595 173.011 289.585 172.99 289.575C172.818 289.492 172.654 289.4 172.497 289.302C172.47 289.285 172.444 289.268 172.418 289.251C168.916 286.96 169.218 280.975 173.326 279.323C191.421 272.05 222.904 257.756 240.33 240.33C257.756 222.904 272.05 191.421 279.323 173.326ZM33.9746 262.324C44.2165 266.706 55.9778 270.276 68.3496 273.205C88.7217 278.028 113.147 281.662 140.008 283.833C140.003 284.065 140 284.295 140 284.524C140 296.337 146.328 311.207 162.139 317.562C179.945 324.718 204.928 336.587 217.905 348.759C211.695 348.917 205.388 349.001 199 349.001C102.351 349.001 24.0011 330.452 24 307.572V274.716H24.1055C24.7256 270.384 28.1542 266.22 33.9746 262.324ZM207.343 305.558C207.101 305.427 206.859 305.297 206.617 305.167C206.859 305.297 207.101 305.427 207.343 305.558ZM362.26 263.789C362.005 263.652 361.751 263.513 361.496 263.374H361.498C361.752 263.512 362.005 263.652 362.26 263.789ZM33.9756 169.469C44.41 173.933 56.4537 177.566 69.168 180.54C103.598 188.594 149.439 193.288 199 193.288L203.575 193.274C215.137 193.207 226.48 192.881 237.506 192.319C231.843 202.877 225.503 212.731 219.117 219.117C206.54 231.695 180.517 244.101 162.139 251.487C159.779 252.436 157.631 253.575 155.684 254.864C79.9895 250.301 24.0065 234.059 24 214.719V181.86H24.1055C24.7257 177.528 28.1549 173.364 33.9756 169.469ZM330.498 242.051H330.496C330.462 242.018 330.427 241.986 330.393 241.954L329.546 241.145C329.859 241.448 330.177 241.749 330.498 242.051ZM364.023 169.469C370.483 173.791 373.999 178.442 373.999 183.288H374V216.146H373.895C373.233 220.762 369.379 225.186 362.841 229.3C357.82 225.984 353.372 222.558 349.932 219.117C341.333 210.518 332.815 195.634 325.926 181.205C326.435 181.091 326.943 180.976 327.447 180.86C340.744 177.811 353.266 174.07 364.023 169.469ZM199 49C295.648 49 373.997 67.5483 373.999 90.4287H374V123.286H373.895C372.171 135.334 348.718 146.073 312.521 153.385C305.079 143.945 293.85 140 284.524 140C272.907 140 258.33 146.121 251.808 161.365C235.145 162.612 217.405 163.288 199 163.288C103.106 163.288 25.2259 145.029 24.0146 122.395L24 121.859V89.001H24.1055C27.2869 66.7818 104.371 49 199 49Z" fill="#222222"/>
</svg>
