<svg width="698" height="95" viewBox="0 0 698 95" fill="none" xmlns="http://www.w3.org/2000/svg">
<path d="M132.077 76.8008V75.6488C135.072 75.572 135.763 75.4184 136.685 74.804C138.067 74.036 138.528 72.884 138.528 70.7336L138.451 27.4952C138.451 25.3448 137.99 24.1928 136.761 23.4248C135.763 22.8104 135.149 22.6568 132.23 22.58V21.428H151.046L167.789 59.5976L184.685 21.428H203.117V22.58C200.275 22.6568 199.584 22.8104 198.662 23.4248C197.357 24.1928 196.819 25.3448 196.819 27.4952L196.896 70.7336C196.896 72.884 197.433 74.036 198.739 74.804C199.661 75.4184 200.275 75.572 203.117 75.6488V76.8008H178.003V75.6488C180.998 75.572 181.613 75.4184 182.611 74.804C183.993 74.036 184.454 72.884 184.454 70.7336V32.3336L165.024 76.8008H161.721L142.445 32.6408V70.7336C142.445 72.884 143.059 74.036 144.288 74.804C145.286 75.4184 145.901 75.572 148.742 75.6488V76.8008H132.077ZM199.479 39.7832V38.708H220.369V39.7832H219.294C217.22 39.7832 216.529 40.244 216.529 41.78C216.529 42.2408 216.683 43.0088 216.99 44.0072L224.593 64.7432L232.887 44.0072C233.195 43.0088 233.425 42.2408 233.425 41.78C233.425 40.244 232.58 39.7832 230.353 39.7832H229.201V38.708H242.027V39.7832H241.259C240.491 39.7832 239.569 39.9368 239.185 40.1672C238.801 40.3208 238.494 40.7048 238.187 41.0888C237.419 41.9336 237.265 42.164 236.497 44.0072L222.596 78.7976C220.83 83.0984 219.524 85.556 217.758 87.3992C215.761 89.7032 212.612 91.0088 209.233 91.0088C204.625 91.0088 201.323 88.628 201.323 85.3256C201.323 82.7912 203.627 80.6408 206.391 80.6408C208.542 80.6408 210.539 82.1 210.846 84.0968L210.999 85.0952C211.076 85.7096 211.844 86.0936 212.689 86.0936C214.763 86.0936 216.606 83.8664 218.142 79.2584L204.855 44.0072C203.703 40.8584 202.551 39.7832 200.324 39.7832H199.479ZM565.655 76.8008V75.6488C568.574 75.572 569.188 75.4184 570.11 74.804C571.415 74.036 571.876 72.9608 571.876 70.7336V69.044V27.4952C571.876 25.3448 571.415 24.1928 570.186 23.4248C569.188 22.8104 568.574 22.7336 565.732 22.58V21.428H595.914C612.657 21.5048 624.638 32.8712 624.638 48.8456C624.638 65.204 612.119 76.8008 594.378 76.8008H565.655ZM584.548 25.652V72.3464C587.543 72.7304 590.078 72.884 592.074 72.884C603.748 72.884 611.505 63.5144 611.505 49.3832C611.505 34.7144 603.364 25.268 590.769 25.268C589.156 25.268 587.082 25.4216 584.548 25.652ZM627.23 76.8008V75.6488C630.149 75.572 630.763 75.4184 631.761 74.804C633.067 74.036 633.528 72.884 633.528 70.7336V67.6616L633.605 27.4952C633.605 25.3448 633.144 24.2696 631.915 23.4248C630.917 22.8104 630.302 22.7336 627.384 22.6568V21.428H653.035C666.859 21.5048 674.769 26.4968 674.769 35.252C674.769 41.5496 670.315 46.004 662.481 48.0008C666.321 48.8456 667.857 49.3832 670.085 50.8424C674.385 53.5304 676.766 57.524 676.766 62.132C676.766 67.2008 673.694 71.8088 668.702 74.42C664.709 76.4168 661.944 76.8008 651.653 76.8008H627.23ZM646.2 25.5752L646.123 45.8504C648.043 46.0808 649.579 46.1576 650.731 46.1576C657.566 46.1576 662.174 41.9336 662.174 35.5592C662.174 29.3384 657.643 25.1912 650.808 25.1912C649.656 25.1912 648.12 25.3448 646.2 25.5752ZM646.2 50.228L646.123 72.6536C648.35 72.9608 650.193 73.268 651.499 73.268C658.411 73.268 663.557 68.3528 663.557 61.6712C663.557 54.5288 658.488 49.9976 650.577 49.9976C649.502 49.9976 648.043 50.0744 646.2 50.228Z" fill="#222222"/>
<path d="M260.18 76.8008V75.6488C263.099 75.572 263.713 75.4184 264.711 74.804C266.017 74.036 266.478 72.884 266.478 70.7336V67.3544L266.555 27.4952C266.555 25.3448 266.094 24.2696 264.865 23.4248C263.867 22.8104 263.252 22.7336 260.334 22.6568V21.428H304.724L305.799 35.8664L304.34 35.9432C303.649 30.9512 302.574 28.8776 299.963 27.188C297.735 25.7288 296.199 25.4984 289.671 25.4984H279.073L278.996 46.004H288.212C295.047 46.004 296.583 44.7752 297.044 38.4776H298.196L298.119 57.524H296.891C296.737 54.1448 296.199 52.6088 294.971 51.4568C293.742 50.3048 292.59 50.0744 288.289 50.0744L279.073 49.9976L278.996 70.7336C278.996 72.884 279.534 74.036 280.763 74.804C281.761 75.4184 282.375 75.572 285.294 75.6488V76.8008H260.18ZM303.746 76.8008V75.7256C307.893 75.6488 309.045 74.5736 309.045 71.0408L309.122 68.4296V47.3096C309.122 43.9304 308.354 42.932 305.897 42.932C305.282 42.932 304.975 43.0088 304.053 43.2392L303.823 42.164L320.258 37.7096L320.181 71.0408C320.181 74.5736 321.41 75.6488 325.404 75.7256V76.8008H303.746ZM307.356 26.1896C307.356 22.5032 310.351 19.508 314.037 19.508C317.801 19.508 320.719 22.5032 320.719 26.1896C320.719 29.7992 317.801 32.7176 314.114 32.7176C310.351 32.7176 307.356 29.7992 307.356 26.1896ZM332.258 75.188C329.57 73.7288 328.495 72.2696 328.495 70.0424C328.495 68.8904 328.879 67.7384 329.647 66.74C330.799 65.1272 332.028 64.2824 335.484 62.516C330.261 60.3656 327.497 56.6024 327.497 51.4568C327.497 43.7 334.332 38.1704 344.162 38.1704C346.543 38.1704 347.849 38.324 351.381 39.0152L364.591 38.708V43.0856L355.529 42.6248C356.681 43.1624 357.602 43.7 358.14 44.084C360.06 45.6968 361.365 48.8456 361.365 51.8408C361.365 59.06 354.453 64.436 345.314 64.436C342.933 64.436 341.013 64.2056 339.401 63.5912C337.481 64.9736 336.943 65.6648 336.943 66.6632C336.943 68.0456 338.863 68.5832 344.393 68.5832H348.079H348.693C352.764 68.5832 354.453 68.66 356.604 68.8904C361.749 69.7352 364.745 72.9608 364.745 77.7992C364.745 81.716 362.594 85.4024 359.138 87.7064C355.452 90.0872 350.537 91.1624 343.625 91.1624C331.951 91.1624 324.885 88.0136 324.885 82.9448C324.885 81.9464 325.346 80.8712 325.961 79.9496C327.343 78.26 328.418 77.492 332.258 75.188ZM339.17 50.4584V51.38C339.477 57.2168 341.551 60.5192 345.007 60.5192C348.309 60.5192 349.999 57.6008 349.999 51.8408C349.999 45.3896 347.772 41.5496 344.162 41.5496C340.86 41.5496 339.17 44.3912 339.17 50.4584ZM343.164 77.7992C339.785 77.6456 339.093 77.5688 336.482 76.8776C334.562 78.7976 333.871 79.9496 333.871 81.332C333.871 84.7112 338.863 86.9384 346.313 86.9384C353.378 86.9384 358.063 84.7112 358.063 81.2552C358.063 79.412 356.45 78.1832 353.609 78.0296H349.999C347.157 78.0296 345.621 77.9528 343.164 77.7992ZM363.896 42.164L380.408 37.7096V65.8184C380.408 69.9656 382.021 71.8856 385.247 71.8856C387.551 71.8856 389.087 70.964 392.466 67.8152L392.389 47.3864C392.389 43.9304 391.698 42.932 389.24 42.932C388.626 42.932 388.242 43.0088 387.397 43.2392L387.167 42.164L403.679 37.7096L403.755 67.9688C403.755 71.1176 404.754 72.4232 407.135 72.4232C407.442 72.4232 408.056 72.4232 408.901 72.2696L409.055 73.3448L392.466 77.7224V70.7336C391.391 71.8088 390.315 72.7304 389.394 73.4984C386.322 76.0328 382.943 77.4152 379.563 77.4152C376.645 77.4152 373.957 76.4168 372.037 74.6504C369.887 72.8072 369.195 70.8104 369.195 66.2024V47.3864C369.195 43.9304 368.427 42.932 366.047 42.932C365.355 42.932 365.048 43.0088 364.127 43.2392L363.896 42.164ZM408.746 76.8008V75.7256C412.893 75.6488 414.122 74.5736 414.122 71.0408V68.1992V47.3864C414.122 43.9304 413.354 42.932 410.897 42.932C410.282 42.932 409.975 43.0088 409.053 43.2392L408.823 42.164L425.335 37.7096V45.4664C428.637 40.7048 431.786 38.4776 435.089 38.4776C437.93 38.4776 440.311 40.7048 440.311 43.4696C440.311 46.2344 438.161 48.308 435.473 48.308C433.86 48.308 432.708 47.7704 431.633 46.388C431.249 45.9272 431.018 45.62 430.788 45.3896C430.481 45.0824 429.943 44.852 429.329 44.852C428.945 44.852 428.33 45.0056 427.793 45.3896C426.103 46.8488 425.412 48.9224 425.412 53.1464L425.335 71.0408C425.335 74.5736 426.564 75.6488 430.865 75.7256V76.8008H408.746ZM437.621 76.8008V75.7256C441.768 75.6488 442.92 74.5736 442.92 71.0408L442.997 68.4296V47.3096C442.997 43.9304 442.229 42.932 439.772 42.932C439.157 42.932 438.85 43.0088 437.928 43.2392L437.698 42.164L454.133 37.7096L454.056 71.0408C454.056 74.5736 455.285 75.6488 459.279 75.7256V76.8008H437.621ZM441.231 26.1896C441.231 22.5032 444.226 19.508 447.912 19.508C451.676 19.508 454.594 22.5032 454.594 26.1896C454.594 29.7992 451.676 32.7176 447.989 32.7176C444.226 32.7176 441.231 29.7992 441.231 26.1896ZM458.914 76.8008V75.7256C463.215 75.6488 464.52 74.5736 464.52 71.0408V68.7368V47.3864C464.52 43.9304 463.829 42.932 461.372 42.932C460.757 42.932 460.373 43.0088 459.528 43.2392L459.298 42.164L475.81 37.7096L475.733 45.0056C478.191 42.6248 479.189 41.78 481.032 40.628C483.49 39.0152 485.948 38.2472 488.712 38.2472C492.015 38.2472 494.78 39.3224 496.7 41.396C498.62 43.4696 499.157 45.0824 499.157 49.9976L499.004 71.0408C499.004 74.5736 500.386 75.6488 504.61 75.7256V76.8008H482.722V75.7256C486.562 75.6488 487.714 74.5736 487.714 71.0408L487.791 50.3048C487.791 46.8488 487.714 46.5416 486.869 45.3128C486.101 44.3144 484.719 43.7 483.106 43.7C480.879 43.7 478.882 44.7752 475.733 47.8472V71.0408C475.733 74.4968 477.039 75.6488 480.879 75.7256V76.8008H458.914ZM541.325 55.6808L517.517 55.604C517.593 65.1272 521.817 70.8104 528.96 70.8104C530.726 70.8104 532.646 70.3496 534.336 69.428C537.561 67.7384 538.867 66.1256 540.71 61.5944L541.862 61.8248C541.094 64.436 540.403 66.6632 539.558 68.5064C537.024 74.036 531.187 77.492 524.045 77.492C513.293 77.492 506.073 69.5816 506.073 58.0616C506.073 46.2344 513.677 38.0936 524.736 38.0936C528.345 38.0936 531.648 39.0152 534.489 40.8584C539.021 43.7 540.787 47.4632 541.325 55.6808ZM518.285 47.54C518.054 48.7688 517.901 50.1512 517.593 51.764H529.651C529.344 47.0024 528.96 45.62 527.731 43.7C526.809 42.164 525.35 41.3192 523.891 41.3192C521.28 41.3192 519.053 43.7768 518.285 47.54Z" fill="url(#paint0_linear_68_1553)"/>
<path d="M682.176 1.65627C682.389 1.12403 683.21 1.12403 683.424 1.65627C684.297 3.82769 686.012 7.60554 688.103 9.6967C690.194 11.7879 693.972 13.5031 696.143 14.3759C696.676 14.5898 696.676 15.4102 696.143 15.6241C693.972 16.4969 690.194 18.2121 688.103 20.3033C686.012 22.3945 684.297 26.1723 683.424 28.3437C683.21 28.876 682.389 28.876 682.176 28.3437C681.303 26.1723 679.588 22.3945 677.496 20.3033C675.405 18.2121 671.627 16.4969 669.456 15.6241C668.924 15.4102 668.924 14.5898 669.456 14.3759C671.627 13.5031 675.405 11.7879 677.496 9.6967C679.588 7.60554 681.303 3.82769 682.176 1.65627Z" fill="url(#paint1_linear_68_1553)"/>
<path d="M2.39648 58.9902C4.85333 60.0411 7.67419 60.8991 10.6416 61.6016C15.5306 62.7589 21.3934 63.6274 27.8398 64.1484C27.8386 64.205 27.8369 64.2613 27.8369 64.3174C27.8369 67.1519 29.3557 70.7201 33.1494 72.2451C37.4212 73.9621 43.4145 76.8096 46.5293 79.7295C45.04 79.7674 43.5269 79.7891 41.9951 79.7891C18.8045 79.7889 0.00291429 75.3375 0 69.8477V61.9639H0.0273438C0.175641 60.9242 0.999969 59.9252 2.39648 58.9902ZM80.9883 59.2393C81.7328 59.6442 82.4786 60.031 83.2139 60.3955C83.7224 61.0133 83.9891 61.6513 83.9893 62.3047V67.8594C80.1658 69.7002 75.9012 72.1457 73.124 74.9229L72.9287 75.1211C72.3846 75.6819 71.8536 76.299 71.3379 76.957C66.8634 77.9922 61.4159 78.79 55.3506 79.2715C54.2835 77.6446 53.1306 76.1404 51.9131 74.9229C47.7313 70.7411 40.1763 67.3107 35.834 65.5654C35.3911 65.3872 35.1346 64.9986 35.0605 64.5752C37.3275 64.6608 39.6434 64.707 41.9941 64.707L43.0918 64.7041C54.4089 64.638 64.854 63.5503 72.8164 61.7246C75.7612 61.0493 78.5471 60.2293 80.9883 59.2393ZM65.1387 40.8584C67.0433 45.1052 69.8529 50.4408 73.124 53.7119L73.3223 53.9072C73.396 53.9788 73.4722 54.049 73.5479 54.1201C71.6723 54.625 69.5838 55.0867 67.3154 55.4932C67.2905 55.4976 67.2652 55.5024 67.2402 55.5068C66.2671 55.6804 65.2609 55.8447 64.2246 55.998C64.1789 56.0048 64.1327 56.0118 64.0869 56.0186C63.5868 56.0919 63.0793 56.163 62.5654 56.2314C62.535 56.2355 62.5041 56.2401 62.4736 56.2441C61.9656 56.3115 61.4505 56.3761 60.9297 56.4385C60.8622 56.4466 60.7942 56.4549 60.7266 56.4629C60.2147 56.5234 59.6964 56.5811 59.1729 56.6367C59.1287 56.6414 59.0842 56.6467 59.04 56.6514C58.5088 56.7073 57.9713 56.7607 57.4287 56.8115C57.3547 56.8185 57.2802 56.8252 57.2061 56.832C56.7049 56.8782 56.1987 56.9222 55.6885 56.9639C55.515 56.9781 55.3405 56.9912 55.166 57.0049C54.7458 57.0377 54.3224 57.0699 53.8965 57.0996C53.6505 57.1168 53.4031 57.1323 53.1553 57.1484C52.775 57.1732 52.3923 57.1984 52.0078 57.2207C51.713 57.2378 51.4164 57.2529 51.1191 57.2686C50.7774 57.2865 50.4337 57.3053 50.0889 57.3213C49.7213 57.3383 49.3514 57.3524 48.9805 57.3672C48.7019 57.3782 48.422 57.3907 48.1416 57.4004C47.8066 57.4121 47.4703 57.4204 47.1328 57.4297C48.9251 56.2855 50.5884 55.0366 51.9131 53.7119C55.0088 50.6162 57.6917 45.6717 59.585 41.5508C61.5024 41.3518 63.3573 41.1199 65.1387 40.8584ZM2.39453 36.709C4.89791 37.7798 7.78773 38.6517 10.8379 39.3652C19.0999 41.298 30.1013 42.4238 41.9941 42.4238L43.0918 42.4209C45.8666 42.4047 48.5892 42.3252 51.2354 42.1904C49.8763 44.7242 48.3558 47.0895 46.8232 48.6221C43.805 51.6403 37.5596 54.6171 33.1494 56.3896C32.5851 56.6165 32.0716 56.8892 31.6055 57.1973C31.3776 57.1835 31.1502 57.1699 30.9238 57.1553C30.5748 57.1327 30.2272 57.1096 29.8818 57.085C29.5741 57.063 29.2676 57.0401 28.9629 57.0166C28.643 56.9919 28.3243 56.9669 28.0078 56.9404C27.7075 56.9153 27.4085 56.889 27.1113 56.8623C26.7862 56.8331 26.4628 56.8025 26.1416 56.7715C25.8336 56.7417 25.527 56.7121 25.2227 56.6807C24.9316 56.6506 24.6421 56.6185 24.3545 56.5869C24.0568 56.5542 23.7606 56.5216 23.4668 56.4873C23.1591 56.4514 22.8532 56.4136 22.5498 56.376C22.2629 56.3404 21.9773 56.3056 21.6943 56.2686C21.4313 56.2341 21.1697 56.1979 20.9102 56.1621C20.6001 56.1194 20.2922 56.0767 19.9873 56.0322C19.7346 55.9953 19.4835 55.9561 19.2344 55.918C18.94 55.8729 18.6476 55.8289 18.3584 55.7822C18.1173 55.7433 17.878 55.7022 17.6406 55.6621C17.3407 55.6115 17.043 55.5622 16.749 55.5098C16.5318 55.471 16.3165 55.4284 16.1025 55.3887C15.8163 55.3355 15.5321 55.2853 15.252 55.2305C14.7636 55.1349 14.2838 55.0372 13.8145 54.9365L13.8154 54.9355C5.33219 53.1167 0.00178384 50.4892 0 47.5664V39.6816H0.0253906C0.174189 38.6424 0.998391 37.6436 2.39453 36.709ZM81.5908 36.707C83.1432 37.745 83.9892 38.8606 83.9893 40.0244V47.9092H83.9639C83.8046 49.0172 82.8781 50.0759 81.3086 51.0625C80.1052 50.2676 79.0387 49.4469 78.2139 48.6221C76.1499 46.5581 74.1066 42.9846 72.4531 39.5215C72.5749 39.4942 72.6968 39.47 72.8174 39.4424C76.0068 38.711 79.0103 37.8106 81.5908 36.707ZM41.9951 7.7998C65.1876 7.79984 83.9888 12.2506 83.9893 17.7412V25.626H83.9639C83.5495 28.5172 77.9206 31.0922 69.2334 32.8457C67.4475 30.5828 64.7552 29.6358 62.5186 29.6357C59.7319 29.6357 56.2372 31.1043 54.6709 34.7588C54.4055 34.7791 54.1388 34.8007 53.8711 34.8193C53.6526 34.8346 53.4329 34.8479 53.2129 34.8623C52.8091 34.8887 52.4027 34.9158 51.9941 34.9395C51.7183 34.9554 51.441 34.9697 51.1631 34.9844C50.8033 35.0033 50.4414 35.0223 50.0781 35.0391C49.7257 35.0554 49.3712 35.0688 49.0156 35.083C48.7241 35.0946 48.4312 35.108 48.1377 35.1182C47.7586 35.1314 47.3774 35.1416 46.9951 35.1523C46.6876 35.161 46.3788 35.1707 46.0693 35.1777C45.7567 35.1849 45.4426 35.1888 45.1279 35.1943C44.7712 35.2006 44.4129 35.2088 44.0537 35.2129C43.3716 35.2207 42.6844 35.2256 41.9941 35.2256C41.278 35.2256 40.5657 35.2203 39.8584 35.2119C39.8217 35.2115 39.7847 35.2104 39.748 35.21C39.1036 35.2019 38.4626 35.1907 37.8262 35.1758C37.6021 35.1706 37.3783 35.1633 37.1553 35.1572C36.7036 35.1449 36.2538 35.1319 35.8066 35.1162C35.5069 35.1057 35.2078 35.093 34.9102 35.0811C34.5634 35.0671 34.2178 35.0531 33.874 35.0371C33.5006 35.0198 33.1286 35.0001 32.7588 34.9805C32.4818 34.9657 32.2055 34.9516 31.9307 34.9355C31.5784 34.915 31.2276 34.8927 30.8789 34.8701C30.5762 34.8505 30.2745 34.8308 29.9746 34.8096C29.635 34.7856 29.2969 34.7593 28.9609 34.7334C28.6755 34.7113 28.3911 34.6895 28.1084 34.666C27.7557 34.6368 27.4049 34.6056 27.0566 34.5742C26.7905 34.5502 26.5252 34.5262 26.2617 34.501C25.9346 34.4697 25.6091 34.4375 25.2861 34.4043C25.0215 34.3771 24.7579 34.3488 24.4961 34.3203C24.1148 34.2789 23.7363 34.2364 23.3613 34.1924C23.1912 34.1724 23.0214 34.1514 22.8525 34.1309C22.4647 34.0838 22.0799 34.0362 21.6992 33.9863C21.4806 33.9577 21.2631 33.927 21.0469 33.8975C20.7071 33.8511 20.3698 33.8044 20.0361 33.7559C19.8227 33.7248 19.6103 33.6921 19.3994 33.6602C19.0576 33.6084 18.7187 33.5569 18.3838 33.5029C18.2367 33.4792 18.0901 33.4548 17.9443 33.4307C17.0135 33.2764 16.1098 33.1155 15.2363 32.9443C15.2227 32.9417 15.2089 32.9382 15.1953 32.9355C6.04278 31.1375 0.166701 28.4386 0.00390625 25.4121L0 25.2832V17.3984H0.0253906C0.7888 12.0665 19.2872 7.79985 41.9951 7.7998Z" fill="#222222"/>
<path d="M61.2686 37.6352C61.6964 36.5708 63.337 36.5708 63.7648 37.6352C65.5101 41.9775 68.9401 49.5322 73.1219 53.714C77.3037 57.8957 84.8584 61.3258 89.2007 63.0711C90.265 63.4989 90.265 65.1395 89.2007 65.5673C84.8584 67.3125 77.3037 70.7426 73.1219 74.9244C68.9402 79.1062 65.5101 86.6609 63.7648 91.0032C63.337 92.0675 61.6964 92.0675 61.2686 91.0032C59.5233 86.6609 56.0932 79.1062 51.9115 74.9244C47.7297 70.7426 40.175 67.3125 35.8327 65.5673C34.7683 65.1395 34.7683 63.4989 35.8327 63.0711C40.175 61.3258 47.7297 57.8957 51.9115 53.714C56.0932 49.5322 59.5233 41.9775 61.2686 37.6352Z" fill="url(#paint2_linear_68_1553)"/>
<defs>
<linearGradient id="paint0_linear_68_1553" x1="132" y1="94.7817" x2="160.849" y2="-80.43" gradientUnits="userSpaceOnUse">
<stop stop-color="#E3181B"/>
<stop offset="0.5" stop-color="#ED5F7F"/>
<stop offset="1" stop-color="#FFCAD6"/>
</linearGradient>
<linearGradient id="paint1_linear_68_1553" x1="667.8" y1="29.9936" x2="697.793" y2="1.94493e-06" gradientUnits="userSpaceOnUse">
<stop stop-color="#E3181B"/>
<stop offset="0.5" stop-color="#ED5F7F"/>
<stop offset="1" stop-color="#FFCAD6"/>
</linearGradient>
<linearGradient id="paint2_linear_68_1553" x1="35.0344" y1="91.7898" x2="89.9873" y2="36.8369" gradientUnits="userSpaceOnUse">
<stop stop-color="#E3181B"/>
<stop offset="0.5" stop-color="#ED5F7F"/>
<stop offset="1" stop-color="#FFCAD6"/>
</linearGradient>
</defs>
</svg>
