<svg width="698" height="95" viewBox="0 0 698 95" fill="none" xmlns="http://www.w3.org/2000/svg">
<path d="M132.077 76.8008V75.6488C135.072 75.572 135.764 75.4184 136.685 74.804C138.068 74.036 138.528 72.884 138.528 70.7336L138.452 27.4952C138.452 25.3448 137.991 24.1928 136.762 23.4248C135.764 22.8104 135.149 22.6568 132.231 22.58V21.428H151.047L167.789 59.5976L184.685 21.428H203.117V22.58C200.276 22.6568 199.584 22.8104 198.663 23.4248C197.357 24.1928 196.82 25.3448 196.82 27.4952L196.896 70.7336C196.896 72.884 197.434 74.036 198.74 74.804C199.661 75.4184 200.276 75.572 203.117 75.6488V76.8008H178.004V75.6488C180.999 75.572 181.613 75.4184 182.612 74.804C183.994 74.036 184.455 72.884 184.455 70.7336V32.3336L165.024 76.8008H161.722L142.445 32.6408V70.7336C142.445 72.884 143.06 74.036 144.288 74.804C145.287 75.4184 145.901 75.572 148.743 75.6488V76.8008H132.077ZM199.48 39.7832V38.708H220.37V39.7832H219.294C217.221 39.7832 216.53 40.244 216.53 41.78C216.53 42.2408 216.683 43.0088 216.99 44.0072L224.594 64.7432L232.888 44.0072C233.195 43.0088 233.426 42.2408 233.426 41.78C233.426 40.244 232.581 39.7832 230.354 39.7832H229.202V38.708H242.027V39.7832H241.259C240.491 39.7832 239.57 39.9368 239.186 40.1672C238.802 40.3208 238.494 40.7048 238.187 41.0888C237.419 41.9336 237.266 42.164 236.498 44.0072L222.597 78.7976C220.83 83.0984 219.525 85.556 217.758 87.3992C215.762 89.7032 212.613 91.0088 209.234 91.0088C204.626 91.0088 201.323 88.628 201.323 85.3256C201.323 82.7912 203.627 80.6408 206.392 80.6408C208.542 80.6408 210.539 82.1 210.846 84.0968L211 85.0952C211.077 85.7096 211.845 86.0936 212.69 86.0936C214.763 86.0936 216.606 83.8664 218.142 79.2584L204.856 44.0072C203.704 40.8584 202.552 39.7832 200.325 39.7832H199.48ZM565.656 76.8008V75.6488C568.574 75.572 569.189 75.4184 570.11 74.804C571.416 74.036 571.877 72.9608 571.877 70.7336V69.044V27.4952C571.877 25.3448 571.416 24.1928 570.187 23.4248C569.189 22.8104 568.574 22.7336 565.733 22.58V21.428H595.915C612.658 21.5048 624.638 32.8712 624.638 48.8456C624.638 65.204 612.12 76.8008 594.379 76.8008H565.656ZM584.549 25.652V72.3464C587.544 72.7304 590.078 72.884 592.075 72.884C603.749 72.884 611.506 63.5144 611.506 49.3832C611.506 34.7144 603.365 25.268 590.77 25.268C589.157 25.268 587.083 25.4216 584.549 25.652ZM627.231 76.8008V75.6488C630.149 75.572 630.764 75.4184 631.762 74.804C633.068 74.036 633.529 72.884 633.529 70.7336V67.6616L633.605 27.4952C633.605 25.3448 633.145 24.2696 631.916 23.4248C630.917 22.8104 630.303 22.7336 627.385 22.6568V21.428H653.036C666.86 21.5048 674.77 26.4968 674.77 35.252C674.77 41.5496 670.316 46.004 662.482 48.0008C666.322 48.8456 667.858 49.3832 670.085 50.8424C674.386 53.5304 676.767 57.524 676.767 62.132C676.767 67.2008 673.695 71.8088 668.703 74.42C664.709 76.4168 661.945 76.8008 651.653 76.8008H627.231ZM646.201 25.5752L646.124 45.8504C648.044 46.0808 649.58 46.1576 650.732 46.1576C657.567 46.1576 662.175 41.9336 662.175 35.5592C662.175 29.3384 657.644 25.1912 650.809 25.1912C649.657 25.1912 648.121 25.3448 646.201 25.5752ZM646.201 50.228L646.124 72.6536C648.351 72.9608 650.194 73.268 651.5 73.268C658.412 73.268 663.557 68.3528 663.557 61.6712C663.557 54.5288 658.489 49.9976 650.578 49.9976C649.503 49.9976 648.044 50.0744 646.201 50.228Z" fill="white"/>
<path d="M260.181 76.8008V75.6488C263.099 75.572 263.714 75.4184 264.712 74.804C266.018 74.036 266.478 72.884 266.478 70.7336V67.3544L266.555 27.4952C266.555 25.3448 266.094 24.2696 264.866 23.4248C263.867 22.8104 263.253 22.7336 260.334 22.6568V21.428H304.725L305.8 35.8664L304.341 35.9432C303.65 30.9512 302.574 28.8776 299.963 27.188C297.736 25.7288 296.2 25.4984 289.672 25.4984H279.074L278.997 46.004H288.213C295.048 46.004 296.584 44.7752 297.045 38.4776H298.197L298.12 57.524H296.891C296.738 54.1448 296.2 52.6088 294.971 51.4568C293.742 50.3048 292.59 50.0744 288.29 50.0744L279.074 49.9976L278.997 70.7336C278.997 72.884 279.534 74.036 280.763 74.804C281.762 75.4184 282.376 75.572 285.294 75.6488V76.8008H260.181ZM303.747 76.8008V75.7256C307.894 75.6488 309.046 74.5736 309.046 71.0408L309.123 68.4296V47.3096C309.123 43.9304 308.355 42.932 305.897 42.932C305.283 42.932 304.976 43.0088 304.054 43.2392L303.824 42.164L320.259 37.7096L320.182 71.0408C320.182 74.5736 321.411 75.6488 325.404 75.7256V76.8008H303.747ZM307.356 26.1896C307.356 22.5032 310.352 19.508 314.038 19.508C317.801 19.508 320.72 22.5032 320.72 26.1896C320.72 29.7992 317.801 32.7176 314.115 32.7176C310.352 32.7176 307.356 29.7992 307.356 26.1896ZM332.259 75.188C329.571 73.7288 328.496 72.2696 328.496 70.0424C328.496 68.8904 328.88 67.7384 329.648 66.74C330.8 65.1272 332.028 64.2824 335.484 62.516C330.262 60.3656 327.497 56.6024 327.497 51.4568C327.497 43.7 334.332 38.1704 344.163 38.1704C346.544 38.1704 347.849 38.324 351.382 39.0152L364.592 38.708V43.0856L355.529 42.6248C356.681 43.1624 357.603 43.7 358.14 44.084C360.06 45.6968 361.366 48.8456 361.366 51.8408C361.366 59.06 354.454 64.436 345.315 64.436C342.934 64.436 341.014 64.2056 339.401 63.5912C337.481 64.9736 336.944 65.6648 336.944 66.6632C336.944 68.0456 338.864 68.5832 344.393 68.5832H348.08H348.694C352.764 68.5832 354.454 68.66 356.604 68.8904C361.75 69.7352 364.745 72.9608 364.745 77.7992C364.745 81.716 362.595 85.4024 359.139 87.7064C355.452 90.0872 350.537 91.1624 343.625 91.1624C331.952 91.1624 324.886 88.0136 324.886 82.9448C324.886 81.9464 325.347 80.8712 325.961 79.9496C327.344 78.26 328.419 77.492 332.259 75.188ZM339.171 50.4584V51.38C339.478 57.2168 341.552 60.5192 345.008 60.5192C348.31 60.5192 350 57.6008 350 51.8408C350 45.3896 347.772 41.5496 344.163 41.5496C340.86 41.5496 339.171 44.3912 339.171 50.4584ZM343.164 77.7992C339.785 77.6456 339.094 77.5688 336.483 76.8776C334.563 78.7976 333.872 79.9496 333.872 81.332C333.872 84.7112 338.864 86.9384 346.313 86.9384C353.379 86.9384 358.064 84.7112 358.064 81.2552C358.064 79.412 356.451 78.1832 353.609 78.0296H350C347.158 78.0296 345.622 77.9528 343.164 77.7992ZM363.897 42.164L380.409 37.7096V65.8184C380.409 69.9656 382.022 71.8856 385.247 71.8856C387.551 71.8856 389.087 70.964 392.466 67.8152L392.39 47.3864C392.39 43.9304 391.698 42.932 389.241 42.932C388.626 42.932 388.242 43.0088 387.398 43.2392L387.167 42.164L403.679 37.7096L403.756 67.9688C403.756 71.1176 404.754 72.4232 407.135 72.4232C407.442 72.4232 408.057 72.4232 408.902 72.2696L409.055 73.3448L392.466 77.7224V70.7336C391.391 71.8088 390.316 72.7304 389.394 73.4984C386.322 76.0328 382.943 77.4152 379.564 77.4152C376.646 77.4152 373.958 76.4168 372.038 74.6504C369.887 72.8072 369.196 70.8104 369.196 66.2024V47.3864C369.196 43.9304 368.428 42.932 366.047 42.932C365.356 42.932 365.049 43.0088 364.127 43.2392L363.897 42.164ZM408.747 76.8008V75.7256C412.894 75.6488 414.123 74.5736 414.123 71.0408V68.1992V47.3864C414.123 43.9304 413.355 42.932 410.897 42.932C410.283 42.932 409.976 43.0088 409.054 43.2392L408.824 42.164L425.336 37.7096V45.4664C428.638 40.7048 431.787 38.4776 435.089 38.4776C437.931 38.4776 440.312 40.7048 440.312 43.4696C440.312 46.2344 438.161 48.308 435.473 48.308C433.861 48.308 432.709 47.7704 431.633 46.388C431.249 45.9272 431.019 45.62 430.789 45.3896C430.481 45.0824 429.944 44.852 429.329 44.852C428.945 44.852 428.331 45.0056 427.793 45.3896C426.104 46.8488 425.413 48.9224 425.413 53.1464L425.336 71.0408C425.336 74.5736 426.565 75.6488 430.865 75.7256V76.8008H408.747ZM437.622 76.8008V75.7256C441.769 75.6488 442.921 74.5736 442.921 71.0408L442.998 68.4296V47.3096C442.998 43.9304 442.23 42.932 439.772 42.932C439.158 42.932 438.851 43.0088 437.929 43.2392L437.699 42.164L454.134 37.7096L454.057 71.0408C454.057 74.5736 455.286 75.6488 459.28 75.7256V76.8008H437.622ZM441.232 26.1896C441.232 22.5032 444.227 19.508 447.913 19.508C451.676 19.508 454.595 22.5032 454.595 26.1896C454.595 29.7992 451.676 32.7176 447.99 32.7176C444.227 32.7176 441.232 29.7992 441.232 26.1896ZM458.915 76.8008V75.7256C463.215 75.6488 464.521 74.5736 464.521 71.0408V68.7368V47.3864C464.521 43.9304 463.83 42.932 461.372 42.932C460.758 42.932 460.374 43.0088 459.529 43.2392L459.299 42.164L475.811 37.7096L475.734 45.0056C478.191 42.6248 479.19 41.78 481.033 40.628C483.491 39.0152 485.948 38.2472 488.713 38.2472C492.015 38.2472 494.78 39.3224 496.7 41.396C498.62 43.4696 499.158 45.0824 499.158 49.9976L499.004 71.0408C499.004 74.5736 500.387 75.6488 504.611 75.7256V76.8008H482.723V75.7256C486.563 75.6488 487.715 74.5736 487.715 71.0408L487.791 50.3048C487.791 46.8488 487.715 46.5416 486.87 45.3128C486.102 44.3144 484.719 43.7 483.107 43.7C480.879 43.7 478.883 44.7752 475.734 47.8472V71.0408C475.734 74.4968 477.039 75.6488 480.879 75.7256V76.8008H458.915ZM541.325 55.6808L517.517 55.604C517.594 65.1272 521.818 70.8104 528.96 70.8104C530.727 70.8104 532.647 70.3496 534.336 69.428C537.562 67.7384 538.868 66.1256 540.711 61.5944L541.863 61.8248C541.095 64.436 540.404 66.6632 539.559 68.5064C537.024 74.036 531.188 77.492 524.045 77.492C513.293 77.492 506.074 69.5816 506.074 58.0616C506.074 46.2344 513.677 38.0936 524.736 38.0936C528.346 38.0936 531.648 39.0152 534.49 40.8584C539.021 43.7 540.788 47.4632 541.325 55.6808ZM518.285 47.54C518.055 48.7688 517.901 50.1512 517.594 51.764H529.652C529.344 47.0024 528.96 45.62 527.732 43.7C526.81 42.164 525.351 41.3192 523.892 41.3192C521.28 41.3192 519.053 43.7768 518.285 47.54Z" fill="url(#paint0_linear_1_4881)"/>
<path d="M682.176 1.65627C682.39 1.12403 683.211 1.12403 683.424 1.65627C684.297 3.82769 686.012 7.60554 688.104 9.6967C690.195 11.7879 693.973 13.5031 696.144 14.3759C696.676 14.5898 696.676 15.4102 696.144 15.6241C693.973 16.4969 690.195 18.2121 688.104 20.3033C686.012 22.3945 684.297 26.1723 683.424 28.3437C683.211 28.876 682.39 28.876 682.176 28.3437C681.303 26.1723 679.588 22.3945 677.497 20.3033C675.406 18.2121 671.628 16.4969 669.457 15.6241C668.924 15.4102 668.924 14.5898 669.457 14.3759C671.628 13.5031 675.406 11.7879 677.497 9.6967C679.588 7.60554 681.303 3.82769 682.176 1.65627Z" fill="url(#paint1_linear_1_4881)"/>
<path d="M2.39746 58.9902C4.85431 60.0411 7.67517 60.8991 10.6426 61.6016C15.5316 62.7589 21.3944 63.6274 27.8408 64.1484C27.8396 64.205 27.8379 64.2613 27.8379 64.3174C27.8379 67.1519 29.3566 70.7201 33.1504 72.2451C37.4222 73.9621 43.4155 76.8096 46.5303 79.7295C45.0409 79.7674 43.5279 79.7891 41.9961 79.7891C18.8055 79.7889 0.00389085 75.3375 0.000976562 69.8477V61.9639H0.0283203C0.176617 60.9242 1.00095 59.9252 2.39746 58.9902ZM80.9893 59.2393C81.7338 59.6442 82.4796 60.031 83.2148 60.3955C83.7233 61.0133 83.9901 61.6513 83.9902 62.3047V67.8594C80.1668 69.7002 75.9022 72.1457 73.125 74.9229L72.9297 75.1211C72.3856 75.6819 71.8546 76.299 71.3389 76.957C66.8644 77.9922 61.4169 78.79 55.3516 79.2715C54.2845 77.6446 53.1316 76.1404 51.9141 74.9229C47.7323 70.7411 40.1772 67.3107 35.835 65.5654C35.3921 65.3872 35.1356 64.9986 35.0615 64.5752C37.3285 64.6608 39.6444 64.707 41.9951 64.707L43.0928 64.7041C54.4099 64.638 64.855 63.5504 72.8174 61.7246C75.7622 61.0493 78.5481 60.2293 80.9893 59.2393ZM65.1396 40.8584C67.0442 45.1052 69.8539 50.4408 73.125 53.7119L73.3232 53.9072C73.397 53.9788 73.4732 54.049 73.5488 54.1201C71.6733 54.625 69.5848 55.0867 67.3164 55.4932C67.2915 55.4976 67.2662 55.5024 67.2412 55.5068C66.2681 55.6804 65.2619 55.8447 64.2256 55.998C64.1799 56.0048 64.1337 56.0118 64.0879 56.0186C63.5878 56.0919 63.0802 56.163 62.5664 56.2314C62.536 56.2355 62.5051 56.2401 62.4746 56.2441C61.9665 56.3115 61.4515 56.3761 60.9307 56.4385C60.8632 56.4466 60.7952 56.4549 60.7275 56.4629C60.2156 56.5234 59.6974 56.5811 59.1738 56.6367C59.1297 56.6414 59.0852 56.6467 59.041 56.6514C58.5098 56.7073 57.9723 56.7607 57.4297 56.8115C57.3557 56.8185 57.2812 56.8252 57.207 56.832C56.7059 56.8782 56.1997 56.9222 55.6895 56.9639C55.516 56.9781 55.3415 56.9912 55.167 57.0049C54.7468 57.0377 54.3234 57.0699 53.8975 57.0996C53.6515 57.1168 53.4041 57.1323 53.1562 57.1484C52.776 57.1732 52.3933 57.1984 52.0088 57.2207C51.7139 57.2378 51.4174 57.2529 51.1201 57.2686C50.7783 57.2865 50.4347 57.3053 50.0898 57.3213C49.7222 57.3383 49.3524 57.3524 48.9814 57.3672C48.7029 57.3782 48.423 57.3907 48.1426 57.4004C47.8076 57.4121 47.4713 57.4204 47.1338 57.4297C48.926 56.2855 50.5894 55.0366 51.9141 53.7119C55.0098 50.6162 57.6927 45.6717 59.5859 41.5508C61.5034 41.3518 63.3583 41.1199 65.1396 40.8584ZM2.39551 36.709C4.89889 37.7798 7.78871 38.6517 10.8389 39.3652C19.1009 41.298 30.1023 42.4238 41.9951 42.4238L43.0928 42.4209C45.8675 42.4047 48.5902 42.3252 51.2363 42.1904C49.8773 44.7242 48.3568 47.0895 46.8242 48.6221C43.806 51.6403 37.5605 54.6171 33.1504 56.3896C32.5861 56.6165 32.0726 56.8892 31.6064 57.1973C31.3786 57.1835 31.1511 57.1699 30.9248 57.1553C30.5758 57.1327 30.2282 57.1096 29.8828 57.085C29.5751 57.063 29.2686 57.0401 28.9639 57.0166C28.6439 56.9919 28.3253 56.9669 28.0088 56.9404C27.7085 56.9153 27.4094 56.889 27.1123 56.8623C26.7872 56.8331 26.4638 56.8025 26.1426 56.7715C25.8346 56.7417 25.5279 56.7121 25.2236 56.6807C24.9326 56.6506 24.643 56.6185 24.3555 56.5869C24.0578 56.5542 23.7616 56.5216 23.4678 56.4873C23.16 56.4514 22.8542 56.4136 22.5508 56.376C22.2638 56.3404 21.9783 56.3056 21.6953 56.2686C21.4322 56.2341 21.1707 56.1979 20.9111 56.1621C20.6011 56.1194 20.2932 56.0767 19.9883 56.0322C19.7355 55.9953 19.4845 55.9561 19.2354 55.918C18.941 55.8729 18.6486 55.8289 18.3594 55.7822C18.1183 55.7433 17.879 55.7022 17.6416 55.6621C17.3417 55.6115 17.044 55.5622 16.75 55.5098C16.5328 55.471 16.3175 55.4284 16.1035 55.3887C15.8173 55.3355 15.5331 55.2853 15.2529 55.2305C14.7646 55.1349 14.2848 55.0372 13.8154 54.9365L13.8164 54.9355C5.33317 53.1167 0.0027604 50.4892 0.000976562 47.5664V39.6816H0.0263672C0.175166 38.6424 0.999368 37.6436 2.39551 36.709ZM81.5918 36.707C83.1442 37.745 83.9901 38.8606 83.9902 40.0244V47.9092H83.9648C83.8056 49.0172 82.8791 50.0759 81.3096 51.0625C80.1062 50.2676 79.0396 49.4469 78.2148 48.6221C76.1509 46.5581 74.1076 42.9846 72.4541 39.5215C72.5758 39.4942 72.6978 39.47 72.8184 39.4424C76.0078 38.711 79.0112 37.8106 81.5918 36.707ZM41.9961 7.7998C65.1886 7.79984 83.9898 12.2506 83.9902 17.7412V25.626H83.9648C83.5505 28.5172 77.9216 31.0921 69.2344 32.8457C67.4484 30.5828 64.7562 29.6358 62.5195 29.6357C59.7329 29.6357 56.2381 31.1043 54.6719 34.7588C54.4065 34.7791 54.1397 34.8007 53.8721 34.8193C53.6536 34.8346 53.4338 34.8479 53.2139 34.8623C52.8101 34.8887 52.4037 34.9158 51.9951 34.9395C51.7193 34.9554 51.442 34.9697 51.1641 34.9844C50.8042 35.0033 50.4423 35.0223 50.0791 35.0391C49.7267 35.0554 49.3721 35.0688 49.0166 35.083C48.7251 35.0946 48.4322 35.108 48.1387 35.1182C47.7596 35.1314 47.3784 35.1416 46.9961 35.1523C46.6886 35.161 46.3798 35.1707 46.0703 35.1777C45.7576 35.1849 45.4435 35.1888 45.1289 35.1943C44.7722 35.2006 44.4138 35.2088 44.0547 35.2129C43.3726 35.2207 42.6854 35.2256 41.9951 35.2256C41.279 35.2256 40.5667 35.2203 39.8594 35.2119C39.8227 35.2115 39.7857 35.2104 39.749 35.21C39.1046 35.2019 38.4636 35.1907 37.8271 35.1758C37.6031 35.1706 37.3792 35.1633 37.1562 35.1572C36.7046 35.1449 36.2548 35.1319 35.8076 35.1162C35.5079 35.1057 35.2088 35.093 34.9111 35.0811C34.5644 35.0671 34.2188 35.0531 33.875 35.0371C33.5016 35.0198 33.1296 35.0001 32.7598 34.9805C32.4828 34.9657 32.2065 34.9516 31.9316 34.9355C31.5794 34.915 31.2286 34.8927 30.8799 34.8701C30.5772 34.8505 30.2755 34.8308 29.9756 34.8096C29.636 34.7856 29.2979 34.7593 28.9619 34.7334C28.6765 34.7113 28.392 34.6895 28.1094 34.666C27.7567 34.6368 27.4059 34.6056 27.0576 34.5742C26.7915 34.5502 26.5262 34.5262 26.2627 34.501C25.9355 34.4697 25.6101 34.4375 25.2871 34.4043C25.0224 34.3771 24.7589 34.3488 24.4971 34.3203C24.1158 34.2789 23.7373 34.2364 23.3623 34.1924C23.1921 34.1724 23.0224 34.1514 22.8535 34.1309C22.4657 34.0838 22.0809 34.0362 21.7002 33.9863C21.4816 33.9577 21.2641 33.927 21.0479 33.8975C20.708 33.8511 20.3708 33.8044 20.0371 33.7559C19.8236 33.7248 19.6113 33.6921 19.4004 33.6602C19.0586 33.6084 18.7197 33.5569 18.3848 33.5029C18.2377 33.4792 18.091 33.4548 17.9453 33.4307C17.0145 33.2764 16.1107 33.1155 15.2373 32.9443C15.2237 32.9417 15.2099 32.9382 15.1963 32.9355C6.04375 31.1375 0.167678 28.4386 0.00488281 25.4121L0.000976562 25.2832V17.3984H0.0263672C0.789777 12.0665 19.2882 7.79985 41.9961 7.7998Z" fill="white"/>
<path d="M61.2693 37.6352C61.6971 36.5708 63.3377 36.5708 63.7655 37.6352C65.5108 41.9775 68.9409 49.5322 73.1227 53.714C77.3044 57.8957 84.8591 61.3258 89.2014 63.0711C90.2658 63.4989 90.2658 65.1395 89.2014 65.5673C84.8591 67.3125 77.3044 70.7426 73.1227 74.9244C68.9409 79.1062 65.5108 86.6609 63.7655 91.0032C63.3377 92.0675 61.6971 92.0675 61.2693 91.0032C59.5241 86.6609 56.094 79.1062 51.9122 74.9244C47.7304 70.7426 40.1757 67.3125 35.8334 65.5673C34.7691 65.1395 34.7691 63.4989 35.8334 63.0711C40.1757 61.3258 47.7304 57.8957 51.9122 53.714C56.094 49.5322 59.5241 41.9775 61.2693 37.6352Z" fill="url(#paint2_linear_1_4881)"/>
<defs>
<linearGradient id="paint0_linear_1_4881" x1="132" y1="94.7817" x2="160.85" y2="-80.43" gradientUnits="userSpaceOnUse">
<stop stop-color="#531284"/>
<stop offset="0.480769" stop-color="#414DCB"/>
<stop offset="1" stop-color="#9DA5FF"/>
</linearGradient>
<linearGradient id="paint1_linear_1_4881" x1="667.8" y1="29.9936" x2="697.794" y2="1.94493e-06" gradientUnits="userSpaceOnUse">
<stop stop-color="#531284"/>
<stop offset="0.480769" stop-color="#414DCB"/>
<stop offset="1" stop-color="#9DA5FF"/>
</linearGradient>
<linearGradient id="paint2_linear_1_4881" x1="35.0352" y1="91.7898" x2="89.988" y2="36.8369" gradientUnits="userSpaceOnUse">
<stop stop-color="#531284"/>
<stop offset="0.480769" stop-color="#414DCB"/>
<stop offset="1" stop-color="#9DA5FF"/>
</linearGradient>
</defs>
</svg>
